# xmcd
#
# Track frame offsets: 
#        150
#        13770
#        28977
#        42992
#        55730
#        68335
#        82825
#        96165
#        109297
#        125207
#        136307
#        148405
#        162535
#        176525
#
# Disc length: 2519 seconds
#
# Revision: 1
# Processed by: cddbd v1.5.2PL0 Copyright (c) Steve Scherf et al.
# Submitted via: ExactAudioCopyFreeDBPlugin 1.0
#
DISCID=c809d50e
DTITLE=Sirano - Cabra assim é bom demais
DYEAR=1997
DGENRE=Country
TTITLE0=Cabra assim é bom demais
TTITLE1=Foi mulher pra mim tá bom
TTITLE2=Festa de vaquejada
TTITLE3=Que mercadoria
TTITLE4=Ficar pra titia
TTITLE5=Você é muito, é do...
TTITLE6=Coração do vaqueiro
TTITLE7=Foi bom quanto durou
TTITLE8=Indomada morena
TTITLE9=Forró pra Dominguinhos
TTITLE10=Estrada pra avião
TTITLE11=Não brinque com sua vida
TTITLE12=Xote pra seu Venâncio
TTITLE13=Criança esperança
EXTD=
EXTT0=
EXTT1=
EXTT2=
EXTT3=
EXTT4=
EXTT5=
EXTT6=
EXTT7=
EXTT8=
EXTT9=
EXTT10=
EXTT11=
EXTT12=
EXTT13=
PLAYORDER=
